<svg xmlns="http://www.w3.org/2000/svg" viewBox="0 0 207.68 214.04"><defs><style>.cls-1,.cls-2,.cls-4{fill:none;stroke:#2bb600;stroke-miterlimit:10;}.cls-1{stroke-width:8.15px;}.cls-2{stroke-width:9.2px;}.cls-3{fill:#2bb600;}.cls-4{stroke-width:7.13px;}</style></defs><g id="Layer_2" data-name="Layer 2"><g id="Objects"><circle class="cls-1" cx="101.29" cy="106.94" r="72.31"/><ellipse class="cls-2" cx="72.36" cy="122.97" rx="14.01" ry="17.79" transform="translate(-47.64 45.79) rotate(-26.78)"/><ellipse class="cls-2" cx="129.47" cy="123.32" rx="17.79" ry="14.01" transform="translate(-40.97 177.36) rotate(-61.2)"/><ellipse class="cls-2" cx="100.7" cy="76.08" rx="11.84" ry="17.79" transform="translate(17.76 171.21) rotate(-85.99)"/><polygon class="cls-3" points="105.5 34.62 97.08 34.62 92.88 4.07 109.7 4.07 105.5 34.62"/><line class="cls-1" x1="83.99" y1="4.07" x2="118.59" y2="4.07"/><polygon class="cls-3" points="70.4 41.5 65.77 43.89 54.78 28.29 64.03 23.51 70.4 41.5"/><line class="cls-4" x1="49.89" y1="30.82" x2="68.92" y2="20.99"/><polygon class="cls-3" points="171.25 88.45 169.74 83.46 187.07 75.49 190.1 85.45 171.25 88.45"/><line class="cls-4" x1="185.48" y1="70.22" x2="191.69" y2="90.72"/><polygon class="cls-3" points="139.41 168.44 143.73 165.54 156.42 179.8 147.77 185.6 139.41 168.44"/><line class="cls-4" x1="160.99" y1="176.73" x2="143.2" y2="188.66"/><polygon class="cls-3" points="29.69 117.42 30.63 122.54 12.51 128.51 10.63 118.27 29.69 117.42"/><line class="cls-4" x1="13.5" y1="133.92" x2="9.64" y2="112.86"/><polygon class="cls-3" points="149.66 53.01 143.08 47.77 158.83 21.26 171.99 31.75 149.66 53.01"/><line class="cls-1" x1="151.88" y1="15.72" x2="178.94" y2="37.29"/><polygon class="cls-3" points="167.78 135.68 170.66 127.78 200.8 134.3 195.03 150.11 167.78 135.68"/><line class="cls-1" x1="203.85" y1="125.95" x2="191.98" y2="158.46"/><polygon class="cls-3" points="96.37 179.21 104.78 179.29 108.69 209.88 91.86 209.71 96.37 179.21"/><line class="cls-1" x1="117.58" y1="209.96" x2="82.97" y2="209.62"/><polygon class="cls-3" points="45.97 153.7 51.77 159.8 32.52 183.89 20.93 171.69 45.97 153.7"/><line class="cls-1" x1="38.64" y1="190.33" x2="14.8" y2="165.25"/><polygon class="cls-3" points="40.74 67.18 36.54 74.47 7.97 62.86 16.37 48.29 40.74 67.18"/><line class="cls-1" x1="3.53" y1="70.57" x2="20.81" y2="40.58"/></g></g></svg>